<svg width="250" height="187" viewBox="0 0 250 187" fill="none" xmlns="http://www.w3.org/2000/svg">
<path d="M250 163.7H0V163.825H250V163.7Z" fill="#E6E6E6"/>
<path d="M212.055 170.715H206.75V170.84H212.055V170.715Z" fill="#E6E6E6"/>
<path d="M203.08 170.775H181.505V170.9H203.08V170.775Z" fill="#E6E6E6"/>
<path d="M154.835 169.585H118.425V169.71H154.835V169.585Z" fill="#E6E6E6"/>
<path d="M97.48 171.755H85.925V171.88H97.48V171.755Z" fill="#E6E6E6"/>
<path d="M58.9749 169.645H43.0649V169.77H58.9749V169.645Z" fill="#E6E6E6"/>
<path d="M76.62 169.645H61.75V169.77H76.62V169.645Z" fill="#E6E6E6"/>
<path d="M47.83 167.46H32.645V167.585H47.83V167.46Z" fill="#E6E6E6"/>
<path d="M118.5 141.4H21.955C21.1987 141.399 20.4738 141.097 19.9394 140.562C19.4051 140.027 19.105 139.301 19.105 138.545V2.83C19.1116 2.07801 19.4146 1.35899 19.9482 0.829109C20.4818 0.299229 21.203 0.00128819 21.955 0H118.5C119.257 0 119.983 0.300794 120.519 0.83621C121.054 1.37163 121.355 2.09781 121.355 2.855V138.545C121.355 139.302 121.054 140.028 120.519 140.564C119.983 141.099 119.257 141.4 118.5 141.4ZM21.955 0.1C21.2318 0.101325 20.5387 0.389533 20.0278 0.901363C19.5169 1.41319 19.23 2.10682 19.23 2.83V138.545C19.23 139.268 19.5169 139.962 20.0278 140.474C20.5387 140.985 21.2318 141.274 21.955 141.275H118.5C119.224 141.274 119.917 140.986 120.429 140.474C120.941 139.962 121.229 139.269 121.23 138.545V2.83C121.229 2.10636 120.941 1.41275 120.429 0.901058C119.917 0.38937 119.224 0.101322 118.5 0.1H21.955Z" fill="#E6E6E6"/>
<path d="M226.655 141.4H130.105C129.348 141.399 128.623 141.097 128.088 140.562C127.553 140.027 127.251 139.302 127.25 138.545V2.83C127.258 2.07756 127.562 1.35854 128.096 0.828796C128.631 0.299054 129.353 0.00127414 130.105 0H226.655C227.406 0.00260225 228.126 0.301125 228.659 0.830864C229.191 1.3606 229.493 2.07888 229.5 2.83V138.545C229.5 139.3 229.201 140.025 228.667 140.56C228.134 141.095 227.41 141.397 226.655 141.4ZM130.105 0.1C129.381 0.101322 128.688 0.38937 128.176 0.901058C127.664 1.41275 127.376 2.10636 127.375 2.83V138.545C127.376 139.269 127.664 139.962 128.176 140.474C128.688 140.986 129.381 141.274 130.105 141.275H226.655C227.379 141.274 228.072 140.986 228.584 140.474C229.096 139.962 229.384 139.269 229.385 138.545V2.83C229.384 2.10636 229.096 1.41275 228.584 0.901058C228.072 0.38937 227.379 0.101322 226.655 0.1H130.105Z" fill="#E6E6E6"/>
<path d="M104.92 10.735H27.0449V78.5H104.92V10.735Z" fill="#E6E6E6"/>
<path d="M108.11 10.735H28.5349V78.5H108.11V10.735Z" fill="#F0F0F0"/>
<path d="M104.92 78.5H27.0449V81.22H104.92V78.5Z" fill="#E6E6E6"/>
<path d="M113.42 78.5H33.845V81.22H113.42V78.5Z" fill="#F0F0F0"/>
<path d="M103.65 74.0399V15.1949L32.9999 15.1949V74.0399H103.65Z" fill="#FAFAFA"/>
<path d="M44.4399 74.0399L58.0699 15.1949H76.7749L63.1449 74.0399H44.4399Z" fill="white"/>
<path d="M35.57 64.205C35.4851 64.205 35.4037 64.1713 35.3437 64.1113C35.2837 64.0513 35.25 63.9699 35.25 63.885V18.095C35.25 18.0102 35.2837 17.9288 35.3437 17.8687C35.4037 17.8087 35.4851 17.775 35.57 17.775C35.6549 17.775 35.7363 17.8087 35.7963 17.8687C35.8563 17.9288 35.89 18.0102 35.89 18.095V63.885C35.89 63.9699 35.8563 64.0513 35.7963 64.1113C35.7363 64.1713 35.6549 64.205 35.57 64.205Z" fill="#E6E6E6"/>
<path d="M66.98 74.0399L80.61 15.1949H87.08L73.45 74.0399H66.98Z" fill="white"/>
<path d="M103.645 74.0351V15.1901H103.08V74.0351H103.645Z" fill="#E6E6E6"/>
<path d="M109.165 15.68H31.2899L30.8799 14.325H108.755L109.165 15.68Z" fill="#E0E0E0"/>
<path d="M109.165 17.9151H31.2899L30.8799 16.5601H108.755L109.165 17.9151Z" fill="#E0E0E0"/>
<path d="M109.165 20.15H31.2899L30.8799 18.795H108.755L109.165 20.15Z" fill="#E0E0E0"/>
<path d="M109.165 22.385H31.2899L30.8799 21.03H108.755L109.165 22.385Z" fill="#E0E0E0"/>
<path d="M109.165 24.62H31.2899L30.8799 23.265H108.755L109.165 24.62Z" fill="#E0E0E0"/>
<path d="M109.165 26.855H31.2899L30.8799 25.5H108.755L109.165 26.855Z" fill="#E0E0E0"/>
<path d="M201.595 15.145H168.85V73.52H201.595V15.145Z" fill="#E6E6E6"/>
<path d="M187.295 18.23C186.802 18.225 186.321 18.0742 185.913 17.7966C185.505 17.5189 185.189 17.1267 185.003 16.6695C184.818 16.2123 184.772 15.7104 184.871 15.2271C184.97 14.7438 185.211 14.3007 185.561 13.9536C185.912 13.6064 186.357 13.3708 186.841 13.2763C187.326 13.1819 187.827 13.2328 188.282 13.4228C188.738 13.6127 189.127 13.9331 189.4 14.3437C189.674 14.7543 189.82 15.2366 189.82 15.73C189.813 16.3953 189.545 17.0311 189.072 17.4993C188.599 17.9674 187.96 18.23 187.295 18.23ZM187.295 13.68C186.901 13.6849 186.516 13.8064 186.191 14.0291C185.865 14.2519 185.613 14.5659 185.465 14.9318C185.318 15.2976 185.282 15.699 185.362 16.0853C185.442 16.4716 185.634 16.8256 185.915 17.1028C186.195 17.38 186.552 17.568 186.939 17.6432C187.326 17.7183 187.727 17.6773 188.091 17.5252C188.455 17.3731 188.766 17.1168 188.985 16.7885C189.203 16.4601 189.32 16.0745 189.32 15.68C189.32 15.4152 189.268 15.1531 189.165 14.9088C189.063 14.6645 188.914 14.4429 188.725 14.2569C188.537 14.0708 188.314 13.924 188.068 13.825C187.823 13.726 187.56 13.6767 187.295 13.68Z" fill="#E0E0E0"/>
<path d="M205.135 15.145H171.315V73.52H205.135V15.145Z" fill="#F0F0F0"/>
<path d="M202.305 70.685V17.975H174.15V70.685H202.305Z" fill="#FAFAFA"/>
<path d="M202.305 70.685V17.975H201.955V70.685H202.305Z" fill="#E0E0E0"/>
<path d="M177.38 94.28C177.38 94.28 177.73 100.165 191.105 100.165C204.48 100.165 204.825 94.28 204.825 94.28H177.38Z" fill="#E6E6E6"/>
<path d="M150.33 104.785H136.67V161.045H150.33V104.785Z" fill="#E6E6E6"/>
<path d="M210.665 161.045H139.295V163.7H210.665V161.045Z" fill="#E6E6E6"/>
<path d="M150.33 161.045H213.285V104.785H150.33V161.045Z" fill="#F5F5F5"/>
<path d="M155.7 139.785H207.915V126.045H155.7V139.785Z" fill="#E6E6E6"/>
<path d="M155.7 156.035H207.915V142.295H155.7V156.035Z" fill="#E6E6E6"/>
<path d="M189.615 127.55H174C173.751 127.55 173.512 127.451 173.335 127.275C173.159 127.098 173.06 126.859 173.06 126.61C173.06 126.36 173.159 126.121 173.335 125.944C173.511 125.767 173.75 125.666 174 125.665H189.615C189.865 125.666 190.104 125.767 190.28 125.944C190.456 126.121 190.555 126.36 190.555 126.61C190.555 126.859 190.456 127.098 190.28 127.275C190.103 127.451 189.864 127.55 189.615 127.55Z" fill="#F5F5F5"/>
<path d="M155.7 123.535H207.915V109.795H155.7V123.535Z" fill="#E6E6E6"/>
<path d="M189.615 111.305H174C173.75 111.304 173.511 111.204 173.335 111.027C173.159 110.849 173.06 110.61 173.06 110.36C173.06 110.111 173.159 109.872 173.335 109.695C173.512 109.519 173.751 109.42 174 109.42H189.615C189.864 109.42 190.103 109.519 190.28 109.695C190.456 109.872 190.555 110.111 190.555 110.36C190.555 110.61 190.456 110.849 190.28 111.027C190.104 111.204 189.865 111.304 189.615 111.305Z" fill="#F5F5F5"/>
<path d="M189.615 143.8H174C173.75 143.799 173.511 143.699 173.335 143.521C173.159 143.344 173.06 143.105 173.06 142.855C173.06 142.606 173.159 142.367 173.335 142.19C173.512 142.014 173.751 141.915 174 141.915H189.615C189.864 141.915 190.103 142.014 190.28 142.19C190.456 142.367 190.555 142.606 190.555 142.855C190.555 143.105 190.456 143.344 190.28 143.521C190.104 143.699 189.865 143.799 189.615 143.8Z" fill="#F5F5F5"/>
<path d="M215.105 100.165H150.33V104.785H215.105V100.165Z" fill="#EBEBEB"/>
<path d="M134.76 104.79H150.33V100.17H134.76V104.79Z" fill="#E0E0E0"/>
<path d="M141.93 100.165H155.505V83.895H141.93V100.165Z" fill="#E6E6E6"/>
<path d="M179.595 83.9H155.505V100.17H179.595V83.9Z" fill="#FAFAFA"/>
<path d="M173.105 92.5C173.105 93.665 170.605 94.605 167.55 94.605C164.495 94.605 162 93.65 162 92.5C162 91.35 164.5 90.395 167.56 90.395C170.62 90.395 173.105 91.325 173.105 92.5Z" fill="white"/>
<g style="mix-blend-mode:multiply" opacity="0.7">
<path d="M141.93 87.095H179.735V85.98H141.93V87.095Z" fill="#E0E0E0"/>
</g>
<path d="M141.175 86.455H155.5V83.225H141.175V86.455Z" fill="#E6E6E6"/>
<path d="M180.34 83.22H155.505V86.45H180.34V83.22Z" fill="#FAFAFA"/>
<path d="M86.9199 92.03H35.1699L38.3999 163.7H90.1499L86.9199 92.03Z" fill="#E6E6E6"/>
<path d="M87.6699 92.03H35.9199L39.1499 163.7H90.8999L87.6699 92.03Z" fill="#FAFAFA"/>
<path d="M47.33 163.7H60.905V147.43H47.33V163.7Z" fill="#E0E0E0"/>
<path d="M125.895 147.43H60.9099V163.7H125.895V147.43Z" fill="#F0F0F0"/>
<g style="mix-blend-mode:multiply" opacity="0.7">
<path d="M47.3299 150.63H126.035V149.515H47.3299V150.63Z" fill="#E0E0E0"/>
</g>
<path d="M46.5849 149.985H60.9099V146.755H46.5849V149.985Z" fill="#E0E0E0"/>
<path d="M126.645 146.755H60.9099V149.985H126.645V146.755Z" fill="#F0F0F0"/>
<path d="M58.585 146.755H76.25V117.36H58.585V146.755Z" fill="#E6E6E6"/>
<path d="M120.385 117.36H76.2451V146.755H120.385V117.36Z" fill="#EBEBEB"/>
<g style="mix-blend-mode:multiply" opacity="0.7">
<path d="M58.5801 121.52L120.57 121.52V120.07L58.5801 120.07V121.52Z" fill="#E0E0E0"/>
</g>
<path d="M57.61 120.68H76.25V114H57.61V120.68Z" fill="#E6E6E6"/>
<path d="M121.36 114H76.2451V120.68H121.36V114Z" fill="#EBEBEB"/>
<path d="M38.9049 163.7C45.8002 163.7 51.3899 158.11 51.3899 151.215C51.3899 144.32 45.8002 138.73 38.9049 138.73C32.0096 138.73 26.4199 144.32 26.4199 151.215C26.4199 158.11 32.0096 163.7 38.9049 163.7Z" fill="#F0F0F0"/>
<g style="mix-blend-mode:multiply" opacity="0.7">
<path d="M32.7901 143.77C33.5301 143 33.8301 142.08 33.4501 141.72C33.0701 141.36 32.1651 141.685 31.4251 142.455C30.6851 143.225 30.3851 144.145 30.7601 144.51C31.1351 144.875 32.0451 144.545 32.7901 143.77Z" fill="#E0E0E0"/>
</g>
<g style="mix-blend-mode:multiply" opacity="0.7">
<path d="M38 141.43C39.05 141.23 39.8249 140.65 39.7249 140.135C39.6249 139.62 38.695 139.365 37.64 139.57C36.585 139.775 35.82 140.35 35.915 140.865C36.01 141.38 36.925 141.635 38 141.43Z" fill="#E0E0E0"/>
</g>
<g style="mix-blend-mode:multiply" opacity="0.7">
<path d="M36.9101 145.79C37.9101 145.435 38.5651 144.645 38.3451 144.025C38.1251 143.405 37.1301 143.19 36.1201 143.525C35.1101 143.86 34.4701 144.67 34.6851 145.29C34.9001 145.91 35.9001 146.145 36.9101 145.79Z" fill="#E0E0E0"/>
</g>
<path d="M125 186.28C178.541 186.28 221.945 183.746 221.945 180.62C221.945 177.494 178.541 174.96 125 174.96C71.4587 174.96 28.0549 177.494 28.0549 180.62C28.0549 183.746 71.4587 186.28 125 186.28Z" fill="#F5F5F5"/>
<path d="M153.62 28.22H96.0798C92.0426 28.22 88.7698 31.4928 88.7698 35.53V173.305C88.7698 177.342 92.0426 180.615 96.0798 180.615H153.62C157.657 180.615 160.93 177.342 160.93 173.305V35.53C160.93 31.4928 157.657 28.22 153.62 28.22Z" fill="#404DFF"/>
<path opacity="0.7" d="M153.62 28.22H96.0798C92.0426 28.22 88.7698 31.4928 88.7698 35.53V173.305C88.7698 177.342 92.0426 180.615 96.0798 180.615H153.62C157.657 180.615 160.93 177.342 160.93 173.305V35.53C160.93 31.4928 157.657 28.22 153.62 28.22Z" fill="white"/>
<path d="M155.55 27.96H98.01C93.9728 27.96 90.7 31.2328 90.7 35.27V173.045C90.7 177.082 93.9728 180.355 98.01 180.355H155.55C159.587 180.355 162.86 177.082 162.86 173.045V35.27C162.86 31.2328 159.587 27.96 155.55 27.96Z" fill="#404DFF"/>
<path opacity="0.2" d="M155.55 27.96H98.01C93.9728 27.96 90.7 31.2328 90.7 35.27V173.045C90.7 177.082 93.9728 180.355 98.01 180.355H155.55C159.587 180.355 162.86 177.082 162.86 173.045V35.27C162.86 31.2328 159.587 27.96 155.55 27.96Z" fill="black"/>
<path d="M129.595 173.64C129.596 174.284 129.406 174.914 129.048 175.45C128.691 175.986 128.183 176.404 127.588 176.651C126.993 176.898 126.338 176.963 125.706 176.838C125.074 176.712 124.494 176.402 124.038 175.947C123.583 175.491 123.273 174.911 123.147 174.279C123.022 173.647 123.087 172.992 123.334 172.397C123.581 171.802 123.999 171.294 124.535 170.936C125.071 170.579 125.701 170.389 126.345 170.39C127.207 170.39 128.034 170.732 128.643 171.342C129.253 171.951 129.595 172.778 129.595 173.64Z" fill="#404DFF"/>
<path opacity="0.4" d="M129.595 173.64C129.596 174.284 129.406 174.914 129.048 175.45C128.691 175.986 128.183 176.404 127.588 176.651C126.993 176.898 126.338 176.963 125.706 176.838C125.074 176.712 124.494 176.402 124.038 175.947C123.583 175.491 123.273 174.911 123.147 174.279C123.022 173.647 123.087 172.992 123.334 172.397C123.581 171.802 123.999 171.294 124.535 170.936C125.071 170.579 125.701 170.389 126.345 170.39C127.207 170.39 128.034 170.732 128.643 171.342C129.253 171.951 129.595 172.778 129.595 173.64Z" fill="black"/>
<path d="M162.28 168.875H90.48V37.9149H162.78L162.28 168.875Z" fill="#404DFF"/>
<path opacity="0.8" d="M162.915 168.805L90.4399 168.89V37.925L162.85 37.85L162.915 168.805Z" fill="white"/>
<path opacity="0.33" d="M85.0149 40.11H84.5149V46.72H85.0149V40.11Z" fill="#404DFF"/>
<path opacity="0.33" d="M85.0149 48.5549H84.5149V50.6249H85.0149V48.5549Z" fill="#404DFF"/>
<path d="M147.25 43.335H97.4449C94.7 43.335 92.4749 45.5601 92.4749 48.305V78.035C92.4749 80.7798 94.7 83.005 97.4449 83.005H147.25C149.995 83.005 152.22 80.7798 152.22 78.035V48.305C152.22 45.5601 149.995 43.335 147.25 43.335Z" fill="white"/>
<path opacity="0.27" d="M104.179 58.6036C107.549 57.1943 109.139 53.3195 107.73 49.9489C106.321 46.5782 102.446 44.9882 99.0752 46.3975C95.7046 47.8068 94.1146 51.6816 95.5239 55.0523C96.9331 58.4229 100.808 60.0129 104.179 58.6036Z" fill="#404DFF"/>
<path d="M107.09 52.5C107.094 53.4086 106.867 54.3033 106.43 55.1C105.796 56.2701 104.756 57.1682 103.506 57.6255C102.256 58.0827 100.881 58.0676 99.6418 57.5829C98.4022 57.0982 97.3822 56.1774 96.7738 54.9936C96.1653 53.8098 96.0103 52.4445 96.3378 51.1543C96.6653 49.8642 97.4527 48.7382 98.5522 47.9879C99.6516 47.2376 100.987 46.9147 102.308 47.08C103.629 47.2453 104.844 47.8873 105.724 48.8854C106.605 49.8835 107.09 51.1689 107.09 52.5Z" fill="white"/>
<path opacity="0.27" d="M106.43 55.095C105.961 55.9594 105.268 56.6813 104.423 57.1843C103.578 57.6873 102.613 57.9528 101.63 57.9528C100.647 57.9528 99.6815 57.6873 98.8367 57.1843C97.9918 56.6813 97.2985 55.9594 96.8298 55.095C98.2509 54.1463 99.9212 53.64 101.63 53.64C103.338 53.64 105.009 54.1463 106.43 55.095Z" fill="#404DFF"/>
<path opacity="0.27" d="M101.63 53.0549C102.972 53.0549 104.06 51.967 104.06 50.6249C104.06 49.2829 102.972 48.1949 101.63 48.1949C100.288 48.1949 99.2 49.2829 99.2 50.6249C99.2 51.967 100.288 53.0549 101.63 53.0549Z" fill="#404DFF"/>
<path d="M148.555 86.6699H96.1399C94.1157 86.6699 92.4749 88.3108 92.4749 90.3349V96.8899C92.4749 98.914 94.1157 100.555 96.1399 100.555H148.555C150.579 100.555 152.22 98.914 152.22 96.8899V90.3349C152.22 88.3108 150.579 86.6699 148.555 86.6699Z" fill="white"/>
<path opacity="0.6" d="M162.375 101.9L169.44 121.37C169.622 121.879 169.596 122.44 169.366 122.93C169.137 123.42 168.723 123.799 168.215 123.985L131.15 137.43C130.641 137.612 130.081 137.586 129.591 137.358C129.102 137.13 128.722 136.717 128.535 136.21L121.47 116.735C121.287 116.226 121.313 115.666 121.542 115.176C121.772 114.687 122.187 114.309 122.695 114.125L159.76 100.675C160.269 100.493 160.83 100.519 161.32 100.749C161.81 100.978 162.189 101.392 162.375 101.9Z" fill="#404DFF"/>
<path d="M161.255 100.72L150.66 118.155C149.679 119.772 148.175 121.005 146.397 121.649C144.619 122.294 142.674 122.312 140.885 121.7L121.575 115.11C121.808 114.646 122.208 114.289 122.695 114.11L159.76 100.66C160.248 100.491 160.782 100.512 161.255 100.72Z" fill="#404DFF"/>
<path opacity="0.5" d="M161.255 100.72L150.66 118.155C149.679 119.772 148.175 121.005 146.397 121.649C144.619 122.294 142.674 122.312 140.885 121.7L121.575 115.11C121.808 114.646 122.208 114.289 122.695 114.11L159.76 100.66C160.248 100.491 160.782 100.512 161.255 100.72Z" fill="white"/>
<path opacity="0.6" d="M150.75 135.365L150.41 152.905C150.399 153.363 150.208 153.797 149.879 154.115C149.549 154.432 149.107 154.607 148.65 154.6L115.255 153.95C115.028 153.945 114.805 153.896 114.597 153.805C114.39 153.714 114.202 153.584 114.045 153.42C113.888 153.257 113.765 153.064 113.683 152.853C113.6 152.642 113.56 152.417 113.565 152.19L113.9 134.65C113.906 134.413 113.96 134.179 114.059 133.964C114.158 133.748 114.299 133.554 114.475 133.395C114.8 133.104 115.223 132.947 115.66 132.955L149.055 133.6C149.513 133.611 149.949 133.802 150.266 134.133C150.584 134.464 150.758 134.907 150.75 135.365Z" fill="#404DFF"/>
<path d="M150.225 134.09L136.545 144.65C135.276 145.628 133.712 146.145 132.11 146.114C130.508 146.083 128.965 145.507 127.735 144.48L114.5 133.395C114.825 133.104 115.249 132.947 115.685 132.955L149.08 133.6C149.509 133.616 149.917 133.79 150.225 134.09Z" fill="#404DFF"/>
<path opacity="0.5" d="M150.225 134.09L136.545 144.65C135.276 145.628 133.712 146.145 132.11 146.114C130.508 146.083 128.965 145.507 127.735 144.48L114.5 133.395C114.825 133.104 115.249 132.947 115.685 132.955L149.08 133.6C149.509 133.616 149.917 133.79 150.225 134.09Z" fill="white"/>
<path d="M117.065 32.0849C117.066 31.8577 117.134 31.6359 117.261 31.4474C117.388 31.2589 117.568 31.1123 117.778 31.0261C117.989 30.9398 118.22 30.9177 118.442 30.9627C118.665 31.0076 118.87 31.1175 119.03 31.2785C119.19 31.4396 119.299 31.6445 119.343 31.8674C119.387 32.0904 119.364 32.3213 119.277 32.5312C119.19 32.741 119.042 32.9203 118.853 33.0465C118.664 33.1726 118.442 33.2399 118.215 33.2399C118.064 33.2399 117.914 33.21 117.774 33.1519C117.634 33.0938 117.507 33.0087 117.4 32.9013C117.293 32.794 117.209 32.6667 117.151 32.5266C117.094 32.3865 117.064 32.2364 117.065 32.0849Z" fill="#404DFF"/>
<path d="M122.19 30.9349H131.745C132.049 30.9363 132.341 31.0578 132.557 31.2732C132.772 31.4886 132.893 31.7803 132.895 32.0849C132.895 32.3904 132.774 32.6834 132.558 32.8999C132.343 33.1163 132.05 33.2386 131.745 33.2399H122.19C121.884 33.2386 121.592 33.1163 121.376 32.8999C121.161 32.6834 121.04 32.3904 121.04 32.0849C121.041 31.7803 121.163 31.4886 121.378 31.2732C121.593 31.0578 121.885 30.9363 122.19 30.9349Z" fill="#404DFF"/>
<path opacity="0.4" d="M117.065 32.0849C117.066 31.8577 117.134 31.6359 117.261 31.4474C117.388 31.2589 117.568 31.1123 117.778 31.0261C117.989 30.9398 118.22 30.9177 118.442 30.9627C118.665 31.0076 118.87 31.1175 119.03 31.2785C119.19 31.4396 119.299 31.6445 119.343 31.8674C119.387 32.0904 119.364 32.3213 119.277 32.5312C119.19 32.741 119.042 32.9203 118.853 33.0465C118.664 33.1726 118.442 33.2399 118.215 33.2399C118.064 33.2399 117.914 33.21 117.774 33.1519C117.634 33.0938 117.507 33.0087 117.4 32.9013C117.293 32.794 117.209 32.6667 117.151 32.5266C117.094 32.3865 117.064 32.2364 117.065 32.0849Z" fill="black"/>
<path opacity="0.4" d="M122.19 30.9349H131.745C132.049 30.9363 132.341 31.0578 132.557 31.2732C132.772 31.4886 132.893 31.7803 132.895 32.0849C132.895 32.3904 132.774 32.6834 132.558 32.8999C132.343 33.1163 132.05 33.2386 131.745 33.2399H122.19C121.884 33.2386 121.592 33.1163 121.376 32.8999C121.161 32.6834 121.04 32.3904 121.04 32.0849C121.041 31.7803 121.163 31.4886 121.378 31.2732C121.593 31.0578 121.885 30.9363 122.19 30.9349Z" fill="black"/>
<path d="M162.96 54.105H158.195C157.088 54.105 156.19 55.0026 156.19 56.11V70.625C156.19 71.7323 157.088 72.63 158.195 72.63H162.96C164.067 72.63 164.965 71.7323 164.965 70.625V56.11C164.965 55.0026 164.067 54.105 162.96 54.105Z" fill="#404DFF"/>
<path opacity="0.8" d="M162.96 54.105H158.195C157.088 54.105 156.19 55.0026 156.19 56.11V70.625C156.19 71.7323 157.088 72.63 158.195 72.63H162.96C164.067 72.63 164.965 71.7323 164.965 70.625V56.11C164.965 55.0026 164.067 54.105 162.96 54.105Z" fill="white"/>
<path d="M163.46 77.975H157.695C156.864 77.975 156.19 78.6488 156.19 79.48V86.92C156.19 87.7512 156.864 88.425 157.695 88.425H163.46C164.291 88.425 164.965 87.7512 164.965 86.92V79.48C164.965 78.6488 164.291 77.975 163.46 77.975Z" fill="#404DFF"/>
<path opacity="0.8" d="M163.46 77.975H157.695C156.864 77.975 156.19 78.6488 156.19 79.48V86.92C156.19 87.7512 156.864 88.425 157.695 88.425H163.46C164.291 88.425 164.965 87.7512 164.965 86.92V79.48C164.965 78.6488 164.291 77.975 163.46 77.975Z" fill="white"/>
<mask id="mask0_25_176" style="mask-type:luminance" maskUnits="userSpaceOnUse" x="88" y="37" width="73" height="132">
<path d="M160.775 37.4049H88.615V168.37H160.775V37.4049Z" fill="white"/>
</mask>
<g mask="url(#mask0_25_176)">
<path d="M99.49 165.215L103.165 165.57L106.99 156.825L103.315 156.465L99.49 165.215Z" fill="#E4897B"/>
<path d="M106.99 156.825L105.02 161.335H101.185L103.31 156.465L106.99 156.825Z" fill="#CE6F64"/>
<path d="M140.815 75.7099L140.935 75.9799L141.09 76.2949C141.19 76.5049 141.305 76.7199 141.42 76.9349C141.655 77.3599 141.92 77.7899 142.17 78.1999C142.696 79.0392 143.276 79.8442 143.905 80.6099C144.545 81.3682 145.228 82.0893 145.95 82.7699C146.325 83.0999 146.69 83.4399 147.08 83.7699L147.665 84.2299L147.8 84.3399C147.736 84.3201 147.671 84.3067 147.605 84.2999C147.46 84.285 147.314 84.3074 147.18 84.3649C147.098 84.3887 147.025 84.4356 146.97 84.4999C146.935 84.5499 147.025 84.4699 147.1 84.3399C147.298 83.9753 147.454 83.5895 147.565 83.1899C147.839 82.2188 148.055 81.232 148.21 80.2349C148.38 79.2049 148.52 78.1499 148.63 77.0949C148.74 76.0399 148.855 74.9649 148.955 73.9149L150.885 73.8849C151.005 74.9999 151.055 76.0849 151.1 77.1949C151.145 78.3049 151.125 79.4049 151.1 80.5299C151.056 81.6866 150.924 82.8382 150.705 83.9749C150.578 84.6297 150.375 85.2674 150.1 85.8749C149.9 86.3048 149.626 86.6959 149.29 87.0299C149.029 87.2749 148.724 87.4669 148.39 87.5949C148.001 87.7406 147.583 87.792 147.17 87.7449C146.835 87.7009 146.51 87.5994 146.21 87.4449C146.09 87.3845 145.973 87.3177 145.86 87.2449L145.67 87.1199L144.94 86.6199C144.44 86.2899 144 85.9249 143.545 85.5599C142.645 84.8087 141.801 83.9932 141.02 83.1199C140.244 82.2388 139.531 81.3049 138.885 80.3249C138.565 79.8249 138.27 79.3249 137.985 78.8249C137.845 78.5599 137.71 78.2999 137.58 78.0249L137.39 77.5999C137.325 77.4499 137.275 77.3299 137.195 77.1249L140.815 75.7099Z" fill="#E4897B"/>
<path d="M142.505 78.2949L139.145 82.9299L140.535 84.2949L144.11 79.9949L142.505 78.2949Z" fill="#F5F5F5"/>
<path d="M137.235 72.1799C141.02 73.1799 143.63 78.4899 143.63 78.4899L139.26 84.6149C139.26 84.6149 134 77.9999 134.135 75.9099C134.265 73.7199 134.955 71.5649 137.235 72.1799Z" fill="#404DFF"/>
<path opacity="0.7" d="M137.235 72.1799C141.02 73.1799 143.63 78.4899 143.63 78.4899L139.26 84.6149C139.26 84.6149 134 77.9999 134.135 75.9099C134.265 73.7199 134.955 71.5649 137.235 72.1799Z" fill="white"/>
<path d="M140.5 74.1349C140.5 74.1349 141.745 75.6049 127.335 93.0449L114 85.2349C117.4 79.9399 119.365 76.5949 123.29 63.9349C125.386 64.6402 127.428 65.4974 129.4 66.4999C131.492 67.5539 133.516 68.7379 135.46 70.0449C137.92 71.8049 140.5 74.1349 140.5 74.1349Z" fill="#404DFF"/>
<path opacity="0.7" d="M140.5 74.1349C140.5 74.1349 141.745 75.6049 127.335 93.0449L114 85.2349C117.4 79.9399 119.365 76.5949 123.29 63.9349C125.386 64.6402 127.428 65.4974 129.4 66.4999C131.492 67.5539 133.516 68.7379 135.46 70.0449C137.92 71.8049 140.5 74.1349 140.5 74.1349Z" fill="white"/>
<path d="M138.77 72.6299C137.83 71.8499 136.625 70.8849 135.46 70.0449C133.526 68.7213 131.501 67.5367 129.4 66.4999C128.22 65.8849 127.01 65.3449 125.98 64.9349C125.815 65.2099 125.95 66.0499 126.455 67.2799C128.375 69.7549 132.835 73.3999 136.555 74.1249C138.285 73.8749 138.825 73.3249 138.77 72.6299Z" fill="#F5F5F5"/>
<path d="M126.455 67.2799C127.575 69.7767 129.067 72.0896 130.88 74.1399C132.767 74.3283 134.668 74.3283 136.555 74.1399C132.835 73.3999 128.375 69.7549 126.455 67.2799Z" fill="#F5F5F5"/>
<path d="M127.35 93.045C127.35 93.045 127.565 127.305 121.49 137.195C115.17 147.48 106.93 160.025 106.93 160.025L99.7949 159.68C99.7949 159.68 108.115 141.12 111.255 132.505C115.58 120.63 117.58 87.325 117.58 87.325L127.35 93.045Z" fill="#404DFF"/>
<path opacity="0.4" d="M127.35 93.045C127.35 93.045 127.565 127.305 121.49 137.195C115.17 147.48 106.93 160.025 106.93 160.025L99.7949 159.68C99.7949 159.68 108.115 141.12 111.255 132.505C115.58 120.63 117.58 87.325 117.58 87.325L127.35 93.045Z" fill="black"/>
<path opacity="0.2" d="M119.76 93.9999C118.605 94.9799 117.611 96.1357 116.815 97.4249C116.59 99.9749 116.315 102.84 116 105.84C118.175 102.885 119.895 97.6999 119.76 93.9999Z" fill="black"/>
<path d="M123.825 90.9999C123.825 90.9999 108.73 112.43 99.325 124C91.725 133.325 69.725 140 69.725 140L67.04 135.5C67.04 135.5 84.54 125.73 89.76 119.42C106.47 99.2199 106.26 88.7449 114.02 85.2899L123.825 90.9999Z" fill="#404DFF"/>
<path opacity="0.4" d="M123.825 90.9999C123.825 90.9999 108.73 112.43 99.325 124C91.725 133.325 69.725 140 69.725 140L67.04 135.5C67.04 135.5 84.54 125.73 89.76 119.42C106.47 99.2199 106.26 88.7449 114.02 85.2899L123.825 90.9999Z" fill="black"/>
<path d="M149 74.3849L148 70.3849L151.815 71.4949C151.815 71.4949 151.71 74.1849 150.39 75.0599L149 74.3849Z" fill="#E4897B"/>
<path d="M149.215 67.1749L151.895 68.5299L151.83 71.5149L148.015 70.4049L149.215 67.1749Z" fill="#E4897B"/>
<path d="M101.29 68.6449L97.79 66.4949L101.29 64.6249C101.29 64.6249 103.085 66.6249 102.755 68.1749L101.29 68.6449Z" fill="#E4897B"/>
<path d="M96.405 63.3399L99.27 62.4399L101.31 64.6249L97.795 66.4949L96.405 63.3399Z" fill="#E4897B"/>
<path d="M103.655 164.435H99.155C99.0738 164.436 98.9952 164.463 98.931 164.512C98.8669 164.562 98.8208 164.632 98.8 164.71L97.8 168.285C97.7755 168.369 97.7712 168.458 97.7876 168.544C97.8039 168.63 97.8404 168.711 97.8941 168.78C97.9477 168.849 98.017 168.905 98.0962 168.942C98.1755 168.98 98.2624 168.998 98.35 168.995C99.93 168.97 100.7 168.88 102.685 168.88C103.905 168.88 107.065 169.005 108.75 169.005C110.435 169.005 110.75 167.335 110.065 167.185C107 166.51 105.24 165.575 104.295 164.685C104.121 164.523 103.892 164.434 103.655 164.435Z" fill="#263238"/>
<path d="M114.265 84.335L112.965 85.18C112.865 85.245 112.92 85.405 113.075 85.495L127.075 93.68C127.195 93.75 127.33 93.75 127.38 93.68L128.2 92.555C128.255 92.475 128.2 92.345 128.06 92.27L114.56 84.365C114.519 84.3328 114.469 84.313 114.417 84.3077C114.365 84.3024 114.312 84.3118 114.265 84.335Z" fill="#263238"/>
<path d="M122.195 69.6699C121.25 70.4249 120.35 71.0349 119.395 71.6699C118.44 72.3049 117.47 72.8499 116.47 73.3899C114.463 74.488 112.351 75.3809 110.165 76.0549C109.895 76.1499 109.605 76.2149 109.33 76.2899C109.055 76.3649 108.79 76.4399 108.46 76.5099C107.743 76.6707 107.004 76.7079 106.275 76.6199C105.502 76.5279 104.758 76.2686 104.095 75.8599C103.479 75.4703 102.938 74.9723 102.5 74.3899C101.76 73.3582 101.23 72.1911 100.94 70.9549C100.792 70.3849 100.685 69.8051 100.62 69.2199C100.541 68.6366 100.502 68.0485 100.505 67.4599L102.425 67.2949C102.657 68.2709 102.969 69.2259 103.36 70.1499C103.7 70.9962 104.193 71.7726 104.815 72.4399C105.038 72.6914 105.31 72.8947 105.614 73.0374C105.919 73.1802 106.249 73.2592 106.585 73.2699C106.938 73.2672 107.289 73.2116 107.625 73.1049C108.06 72.9649 108.57 72.8049 109.035 72.6349C110.959 71.9113 112.821 71.03 114.6 69.9999C115.51 69.4999 116.38 68.9249 117.26 68.3699C118.14 67.8149 119.005 67.1899 119.76 66.6199L122.195 69.6699Z" fill="#E4897B"/>
<path d="M116.01 68.3599L117.74 73.5899L119.365 72.6149L117.845 67.4299L116.01 68.3599Z" fill="#F5F5F5"/>
<path d="M105.655 165.18C105.239 165.172 104.825 165.12 104.42 165.025C104.402 165.02 104.385 165.01 104.373 164.996C104.36 164.981 104.352 164.964 104.35 164.945C104.35 164.926 104.355 164.908 104.365 164.892C104.374 164.876 104.388 164.863 104.405 164.855C104.705 164.71 106.245 164.015 106.655 164.29C106.694 164.318 106.725 164.356 106.745 164.4C106.764 164.444 106.771 164.492 106.765 164.54C106.763 164.624 106.741 164.707 106.702 164.781C106.663 164.856 106.608 164.92 106.54 164.97C106.274 165.13 105.964 165.203 105.655 165.18ZM104.735 164.905C105.235 164.995 106.075 165.095 106.43 164.825C106.478 164.791 106.517 164.746 106.544 164.694C106.571 164.642 106.585 164.584 106.585 164.525C106.588 164.509 106.587 164.493 106.581 164.478C106.576 164.463 106.567 164.45 106.555 164.44C106.33 164.29 105.405 164.61 104.735 164.905Z" fill="#404DFF"/>
<path d="M104.44 165.025C104.422 165.032 104.403 165.032 104.385 165.025C104.371 165.015 104.361 165.001 104.355 164.985C104.35 164.969 104.35 164.951 104.355 164.935C104.355 164.865 104.745 163.23 105.645 163.345C105.88 163.37 105.94 163.49 105.955 163.58C106.015 164.01 104.985 164.83 104.455 165.04L104.44 165.025ZM105.565 163.5C105.025 163.5 104.7 164.375 104.565 164.77C105.065 164.485 105.795 163.835 105.76 163.585C105.76 163.545 105.705 163.515 105.61 163.505L105.565 163.5Z" fill="#404DFF"/>
<path d="M115.195 86.9099L114.835 86.6999C114.765 86.6549 114.73 86.5849 114.76 86.5449L115.84 85.0899C115.87 85.0499 115.955 85.0499 116.025 85.0899L116.39 85.3049C116.46 85.3449 116.495 85.4149 116.465 85.4549L115.385 86.9099C115.355 86.9499 115.27 86.9499 115.195 86.9099Z" fill="#404DFF"/>
<path d="M125.97 93.2149L125.61 92.9999C125.54 92.9599 125.505 92.8899 125.535 92.8499L126.615 91.3949C126.645 91.3549 126.73 91.3549 126.8 91.3949L127.165 91.6049C127.235 91.6499 127.27 91.7199 127.235 91.7599L126.16 93.2149C126.13 93.2549 126.045 93.2549 125.97 93.2149Z" fill="#404DFF"/>
<path d="M120.585 90.0599L120.22 89.8499C120.15 89.8099 120.115 89.7399 120.15 89.6949L121.225 88.2449C121.26 88.1999 121.34 88.1999 121.415 88.2449L121.775 88.4549C121.85 88.4949 121.88 88.5649 121.85 88.6099L120.77 90.0599C120.74 90.1049 120.655 90.1049 120.585 90.0599Z" fill="#404DFF"/>
<path opacity="0.4" d="M115.195 86.9099L114.835 86.6999C114.765 86.6549 114.73 86.5849 114.76 86.5449L115.84 85.0899C115.87 85.0499 115.955 85.0499 116.025 85.0899L116.39 85.3049C116.46 85.3449 116.495 85.4149 116.465 85.4549L115.385 86.9099C115.355 86.9499 115.27 86.9499 115.195 86.9099Z" fill="black"/>
<path opacity="0.4" d="M125.97 93.2149L125.61 92.9999C125.54 92.9599 125.505 92.8899 125.535 92.8499L126.615 91.3949C126.645 91.3549 126.73 91.3549 126.8 91.3949L127.165 91.6049C127.235 91.6499 127.27 91.7199 127.235 91.7599L126.16 93.2149C126.13 93.2549 126.045 93.2549 125.97 93.2149Z" fill="black"/>
<path opacity="0.4" d="M120.585 90.0599L120.22 89.8499C120.15 89.8099 120.115 89.7399 120.15 89.6949L121.225 88.2449C121.26 88.1999 121.34 88.1999 121.415 88.2449L121.775 88.4549C121.85 88.4949 121.88 88.5649 121.85 88.6099L120.77 90.0599C120.74 90.1049 120.655 90.1049 120.585 90.0599Z" fill="black"/>
<path d="M130.59 67.4999C130.59 64.4999 129.59 52.6949 134.51 51.6949C136.065 50.0549 143.77 49.8849 144.95 54.0549C146.51 59.5299 144.2 72.8899 144.2 72.8899L130.59 67.4999Z" fill="#263238"/>
<path d="M145.225 72.9199C145.208 72.9181 145.192 72.913 145.178 72.9049C145.164 72.8968 145.151 72.886 145.141 72.8729C145.13 72.8599 145.123 72.845 145.118 72.829C145.114 72.813 145.113 72.7964 145.115 72.7799C145.115 72.6449 146.74 59.2799 144.945 53.9899C144.445 52.5399 143.055 51.5249 140.995 51.1249C138.315 50.5999 135.415 51.2549 134.61 52.1849C134.587 52.2078 134.555 52.2207 134.522 52.2207C134.49 52.2207 134.458 52.2078 134.435 52.1849C134.412 52.1607 134.399 52.1285 134.399 52.0949C134.399 52.0614 134.412 52.0291 134.435 52.0049C135.375 50.9149 138.53 50.3699 141.06 50.8649C143.21 51.2799 144.68 52.3649 145.2 53.8949C147.01 59.2499 145.395 72.6599 145.38 72.7949C145.38 72.8139 145.375 72.8326 145.367 72.8496C145.358 72.8666 145.346 72.8816 145.332 72.8935C145.317 72.9055 145.3 72.914 145.281 72.9185C145.263 72.9231 145.244 72.9236 145.225 72.9199Z" fill="#263238"/>
<path d="M134 60.0349C133.245 62.2049 131.535 65.9999 129.41 66.4999C129.41 66.4999 128.785 68.7899 132.41 70.9099C136.41 73.2399 135.47 70.0449 135.47 70.0449C133.6 68.2549 134.595 66.6749 135.86 65.3849L134 60.0349Z" fill="#E4897B"/>
<path d="M134.75 62.2148L135.85 65.3798C135.552 65.6787 135.28 66.0015 135.035 66.3448C134.275 65.7398 133.46 64.2648 133.88 63.3448C134.1 62.9191 134.395 62.5364 134.75 62.2148Z" fill="#CE6F64"/>
<path d="M134.03 55.7099C132.995 59.3449 132.48 60.8599 133.635 63.3149C135.37 67.0149 140.055 67.4899 142.135 64.2399C144.025 61.3149 145.395 55.8649 142.415 53.2399C141.762 52.6586 140.971 52.2534 140.117 52.0623C139.264 51.8712 138.376 51.9006 137.537 52.1477C136.698 52.3949 135.936 52.8516 135.322 53.4748C134.709 54.098 134.264 54.8672 134.03 55.7099Z" fill="#E4897B"/>
<path d="M132.965 57.9999C135.55 58.9649 141.625 55.7599 143.28 53.7949C143.5 50.7649 136.395 51.9599 136.395 51.9599C136.395 51.9599 132.605 50.7949 132.965 57.9999Z" fill="#263238"/>
<path d="M132.35 58.7249C132.182 59.4353 132.302 60.1834 132.685 60.8049C133.185 61.6249 134.105 61.3049 134.505 60.4949C134.865 59.7549 135.03 58.4299 134.255 57.8949C134.083 57.7814 133.885 57.7127 133.679 57.695C133.473 57.6773 133.267 57.7112 133.077 57.7936C132.888 57.8761 132.723 58.0044 132.596 58.167C132.469 58.3297 132.384 58.5214 132.35 58.7249Z" fill="#E4897B"/>
<path d="M139.075 58.6049C138.97 58.8949 139.04 59.1849 139.23 59.2499C139.42 59.3149 139.655 59.1349 139.76 58.8449C139.865 58.5549 139.79 58.2699 139.6 58.1999C139.41 58.1299 139.175 58.3149 139.075 58.6049Z" fill="#263238"/>
<path d="M142.345 59.7599C142.245 60.0499 142.315 60.3349 142.505 60.4049C142.695 60.4749 142.93 60.2899 143.03 59.9999C143.13 59.7099 143.06 59.4199 142.875 59.3549C142.69 59.2899 142.45 59.4699 142.345 59.7599Z" fill="#263238"/>
<path d="M142.785 59.3398L143.55 59.3848C143.55 59.3848 143 59.8048 142.785 59.3398Z" fill="#263238"/>
<path d="M141.305 59.95C141.331 60.7004 141.459 61.4438 141.685 62.16C141.5 62.2141 141.306 62.227 141.116 62.1976C140.926 62.1682 140.745 62.0973 140.585 61.99L141.305 59.95Z" fill="#DE5753"/>
<path d="M139.195 62.7799H139.165C138.772 62.6524 138.416 62.433 138.126 62.1399C137.835 61.8468 137.619 61.4885 137.495 61.0949C137.49 61.0711 137.495 61.0465 137.508 61.026C137.521 61.0056 137.541 60.9909 137.565 60.9849C137.576 60.982 137.588 60.9815 137.6 60.9835C137.612 60.9855 137.623 60.99 137.633 60.9966C137.643 61.0032 137.651 61.0118 137.658 61.0218C137.664 61.0319 137.668 61.0431 137.67 61.0549C137.791 61.4168 137.995 61.7456 138.264 62.0154C138.534 62.2853 138.863 62.4888 139.225 62.6099C139.245 62.6169 139.262 62.6308 139.273 62.6492C139.284 62.6675 139.288 62.6891 139.284 62.7101C139.28 62.7311 139.269 62.7502 139.253 62.7639C139.237 62.7776 139.216 62.785 139.195 62.7849V62.7799Z" fill="#263238"/>
<path d="M138.93 57.4599C138.889 57.4605 138.85 57.4473 138.818 57.4226C138.785 57.3978 138.763 57.363 138.753 57.3236C138.743 57.2842 138.747 57.2427 138.763 57.2057C138.78 57.1687 138.809 57.1385 138.845 57.1199C139.093 56.9795 139.372 56.9003 139.657 56.889C139.942 56.8777 140.226 56.9346 140.485 57.0549C140.508 57.0645 140.529 57.0788 140.547 57.0971C140.564 57.1153 140.578 57.137 140.586 57.1608C140.595 57.1846 140.598 57.2099 140.596 57.2351C140.594 57.2603 140.587 57.2848 140.575 57.307C140.563 57.3292 140.547 57.3487 140.527 57.3641C140.507 57.3795 140.484 57.3906 140.459 57.3965C140.435 57.4024 140.409 57.4031 140.384 57.3985C140.359 57.394 140.336 57.3842 140.315 57.3699C140.108 57.2783 139.882 57.2368 139.656 57.249C139.431 57.2612 139.211 57.3266 139.015 57.4399C138.989 57.4536 138.959 57.4605 138.93 57.4599Z" fill="#263238"/>
<path d="M144.42 58.7849C144.381 58.7849 144.342 58.7715 144.311 58.747C144.281 58.7225 144.259 58.6883 144.25 58.6499C144.2 58.4299 144.098 58.2247 143.954 58.051C143.81 57.8773 143.627 57.7399 143.42 57.6499C143.375 57.634 143.337 57.6011 143.316 57.5582C143.294 57.5153 143.291 57.4657 143.305 57.4199C143.312 57.3972 143.324 57.3762 143.34 57.3581C143.355 57.3401 143.375 57.3255 143.396 57.3152C143.418 57.3049 143.441 57.2991 143.465 57.2982C143.489 57.2973 143.513 57.3013 143.535 57.3099C143.799 57.4186 144.034 57.5894 144.218 57.8078C144.403 58.0263 144.532 58.286 144.595 58.5649C144.601 58.5879 144.602 58.6119 144.599 58.6354C144.596 58.6589 144.588 58.6816 144.576 58.702C144.564 58.7225 144.548 58.7403 144.529 58.7546C144.51 58.7688 144.488 58.7791 144.465 58.7849H144.42Z" fill="#263238"/>
<path d="M139.5 58.1899L140.265 58.2349C140.265 58.2349 139.73 58.6499 139.5 58.1899Z" fill="#263238"/>
<path d="M123.3 63.935C121.725 63.56 116.88 67.25 116.88 67.25L118.935 73.805C118.935 73.805 124 71 124.47 68.935C124.935 66.795 125.095 64.365 123.3 63.935Z" fill="#404DFF"/>
<path opacity="0.7" d="M123.3 63.935C121.725 63.56 116.88 67.25 116.88 67.25L118.935 73.805C118.935 73.805 124 71 124.47 68.935C124.935 66.795 125.095 64.365 123.3 63.935Z" fill="white"/>
</g>
<path d="M181 22.22H143.9C142.309 22.22 140.782 22.8521 139.657 23.9773C138.532 25.1025 137.9 26.6287 137.9 28.22V39.72C137.9 41.3113 138.532 42.8374 139.657 43.9626C140.782 45.0878 142.309 45.72 143.9 45.72H147V51.62L152.9 45.72H181C182.591 45.72 184.117 45.0878 185.243 43.9626C186.368 42.8374 187 41.3113 187 39.72V28.22C187 26.6287 186.368 25.1025 185.243 23.9773C184.117 22.8521 182.591 22.22 181 22.22Z" fill="#404DFF"/>
<path opacity="0.3" d="M181 22.22H143.9C142.309 22.22 140.782 22.8521 139.657 23.9773C138.532 25.1025 137.9 26.6287 137.9 28.22V39.72C137.9 41.3113 138.532 42.8374 139.657 43.9626C140.782 45.0878 142.309 45.72 143.9 45.72H147V51.62L152.9 45.72H181C182.591 45.72 184.117 45.0878 185.243 43.9626C186.368 42.8374 187 41.3113 187 39.72V28.22C187 26.6287 186.368 25.1025 185.243 23.9773C184.117 22.8521 182.591 22.22 181 22.22Z" fill="black"/>
<g opacity="0.54">
<path d="M180.13 27H144.76C144.001 27 143.385 27.6156 143.385 28.375C143.385 29.1344 144.001 29.75 144.76 29.75H180.13C180.889 29.75 181.505 29.1344 181.505 28.375C181.505 27.6156 180.889 27 180.13 27Z" fill="#F5F5F5"/>
</g>
<g opacity="0.54">
<path d="M180.125 35.215H157.455C157.089 35.2136 156.739 35.0678 156.481 34.8093C156.222 34.5508 156.076 34.2006 156.075 33.835C156.076 33.4698 156.222 33.1201 156.481 32.8624C156.74 32.6047 157.09 32.46 157.455 32.46H180.125C180.49 32.46 180.839 32.6048 181.097 32.8627C181.355 33.1206 181.5 33.4703 181.5 33.835C181.5 34.2001 181.355 34.5503 181.098 34.809C180.84 35.0677 180.49 35.2136 180.125 35.215Z" fill="#F5F5F5"/>
</g>
<g opacity="0.54">
<path d="M150.725 35.215H144.76C144.395 35.2136 144.045 35.0677 143.787 34.809C143.53 34.5503 143.385 34.2001 143.385 33.835C143.385 33.4703 143.53 33.1206 143.788 32.8627C144.046 32.6048 144.395 32.46 144.76 32.46H150.725C151.09 32.46 151.439 32.6048 151.697 32.8627C151.955 33.1206 152.1 33.4703 152.1 33.835C152.1 34.2001 151.955 34.5503 151.698 34.809C151.44 35.0677 151.09 35.2136 150.725 35.215Z" fill="#F5F5F5"/>
</g>
<g opacity="0.54">
<path d="M171.295 40.6749H144.76C144.395 40.6749 144.046 40.5301 143.788 40.2722C143.53 40.0143 143.385 39.6646 143.385 39.2999C143.385 38.9348 143.53 38.5845 143.787 38.3259C144.045 38.0672 144.395 37.9212 144.76 37.9199H171.295C171.66 37.9212 172.01 38.0672 172.268 38.3259C172.525 38.5845 172.67 38.9348 172.67 39.2999C172.67 39.6646 172.525 40.0143 172.267 40.2722C172.009 40.5301 171.66 40.6749 171.295 40.6749Z" fill="#F5F5F5"/>
</g>
</svg>
