<svg width="297" height="57" viewBox="0 0 297 57" fill="none" xmlns="http://www.w3.org/2000/svg">
    <path
        d="M172.392 53.2364C172.392 54.8217 171.666 56.1348 170.806 56.1348H144.229C142.008 56.1348 140.562 53.5564 141.784 51.6511L163.878 17.7391H142.643C141.784 17.7391 141.106 16.4737 141.106 14.8407C141.106 13.2076 141.784 11.99 142.643 11.99H169.221C171.303 11.99 172.979 14.5255 171.666 16.426L149.572 50.338H170.806C171.666 50.338 172.392 51.6081 172.392 53.2364Z"
        fill="url(#paint0_linear_160_562)" />
    <path
        d="M233.34 53.2364C233.34 54.8217 232.662 56.1348 231.802 56.1348H218.809C206.901 56.1348 203.281 47.2629 203.281 34.0839C203.281 23.3067 205.683 11.99 218.809 11.99H231.802C232.662 11.99 233.34 13.2554 233.34 14.8407C233.34 16.426 232.662 17.7391 231.802 17.7391H218.809C211.79 17.7391 209.484 21.9507 209.121 31.5054H229.085C229.945 31.5054 230.623 32.6801 230.623 34.1317C230.623 35.5833 229.945 36.7579 229.085 36.7579H209.121C209.484 46.3557 211.699 50.3428 218.809 50.3428H231.802C232.662 50.3428 233.34 51.6559 233.34 53.2412V53.2364Z"
        fill="url(#paint1_linear_160_562)" />
    <path
        d="M297 54.9602C297 55.8675 295.735 56.5455 294.102 56.5455C292.469 56.5455 291.203 55.8675 291.203 54.9602V29.605C291.203 20.8238 288.534 17.381 280.607 17.381C272.681 17.381 270.012 20.733 270.012 29.605V54.9602C270.012 55.8675 268.699 56.5455 267.113 56.5455C265.528 56.5455 264.215 55.8675 264.215 54.9602V29.605C264.215 13.1694 274.763 11.5841 280.603 11.5841C291.786 11.5841 296.99 18.1498 296.99 29.605V54.9602H297Z"
        fill="url(#paint2_linear_160_562)" />
    <path
        d="M63.5743 6.5895H61.9269C62.3089 4.5649 63.0873 3.01302 64.2714 1.93387C65.4509 0.859501 66.8261 0.319924 68.3875 0.319924C69.6529 0.319924 70.7606 0.510925 71.7109 0.88815C72.6611 1.27015 73.5684 1.64737 74.4326 2.02937C75.2969 2.41137 76.2137 2.5976 77.1878 2.5976C78.033 2.5976 78.7683 2.43048 79.4034 2.09145C80.0385 1.75243 80.5446 1.05527 80.9219 0H82.5692C82.0631 2.32065 81.2513 3.97757 80.1292 4.97077C79.0118 5.96397 77.5841 6.46057 75.8556 6.46057C74.6332 6.46057 73.5636 6.26002 72.6563 5.85892C71.7491 5.45782 70.8705 5.06627 70.0301 4.68905C69.1849 4.30705 68.2347 4.12082 67.1794 4.12082C66.3772 4.12082 65.661 4.28795 65.0259 4.62697C64.3908 4.966 63.9085 5.62017 63.5695 6.5895H63.5743Z"
        fill="url(#paint3_linear_160_562)" />
    <path
        d="M7.67341 54.9459C5.27158 53.776 3.39501 52.1573 2.03414 50.0897C0.67804 48.0221 0 45.7158 0 43.166C0 41.829 0.534798 40.8501 1.59485 40.2246C2.65967 39.599 4.11127 39.2839 5.94964 39.2839C5.82549 40.0336 5.76341 40.831 5.76341 41.6666C5.76341 44.756 6.64201 47.1578 8.39444 48.8673C10.1469 50.5815 12.5917 51.4362 15.7241 51.4362C18.8565 51.4362 21.3633 50.5481 23.1158 48.7766C24.8682 47.005 25.7468 44.5268 25.7468 41.3562V17.4908H18.1689C15.1606 17.4908 13.6565 15.7575 13.6565 12.2908H28.8171C29.6097 12.2908 30.2782 12.5535 30.8226 13.0739C31.3669 13.5944 31.6391 14.2534 31.6391 15.046V41.3562C31.6391 44.2785 30.9611 46.9096 29.605 49.2493C28.2489 51.5891 26.358 53.4131 23.937 54.731C21.5161 56.0489 18.7801 56.7031 15.7336 56.7031C12.6872 56.7031 10.0848 56.1205 7.68297 54.9507L7.67341 54.9459Z"
        fill="url(#paint4_linear_160_562)" />
    <path
        d="M55.433 55.0987C54.7215 54.2822 54.3682 53.2937 54.3682 52.1239C54.3682 51.3312 54.5544 50.4956 54.9316 49.617L69.9012 13.5992C70.4026 12.3482 71.3624 11.7179 72.7805 11.7179C74.1175 11.7179 75.0582 12.3434 75.5978 13.5992L90.5674 49.617C90.9446 50.4956 91.1309 51.3312 91.1309 52.1239C91.1309 53.2508 90.7775 54.2344 90.066 55.0653C89.3545 55.9009 88.3757 56.4452 87.1198 56.6935L81.7337 43.6005H63.7558L58.3696 56.6935C57.1185 56.4405 56.1349 55.9104 55.4234 55.0939L55.433 55.0987ZM79.9239 38.5295L71.8446 18.0495L71.3433 18.2357L72.4702 21.115L65.5798 38.5295H79.9239Z"
        fill="url(#paint5_linear_160_562)" />
    <path
        d="M115.751 16.6074C115.751 15.0651 116.262 13.8618 117.284 13.0071C118.305 12.1524 119.757 11.7226 121.638 11.7226V51.8087C121.638 53.3558 121.127 54.5543 120.106 55.409C119.084 56.2638 117.632 56.6935 115.751 56.6935V16.6027V16.6074Z"
        fill="url(#paint6_linear_160_562)" />
    <defs>
        <linearGradient id="paint0_linear_160_562" x1="-20.1028" y1="89.2638" x2="591.46"
            y2="-101.645" gradientUnits="userSpaceOnUse">
            <stop stop-color="#9A9A9B" />
            <stop offset="0.24" stop-color="#FBFCFD" />
            <stop offset="0.52" stop-color="#9A9A9B" />
            <stop offset="0.65" stop-color="#878787" />
            <stop offset="0.82" stop-color="#E4EEF7" />
            <stop offset="1" stop-color="#FBFCFD" />
        </linearGradient>
        <linearGradient id="paint1_linear_160_562" x1="-14.134" y1="108.378" x2="597.424"
            y2="-82.5311" gradientUnits="userSpaceOnUse">
            <stop stop-color="#9A9A9B" />
            <stop offset="0.24" stop-color="#FBFCFD" />
            <stop offset="0.52" stop-color="#9A9A9B" />
            <stop offset="0.65" stop-color="#878787" />
            <stop offset="0.82" stop-color="#E4EEF7" />
            <stop offset="1" stop-color="#FBFCFD" />
        </linearGradient>
        <linearGradient id="paint2_linear_160_562" x1="-8.61874" y1="126.022" x2="602.939"
            y2="-64.8873" gradientUnits="userSpaceOnUse">
            <stop stop-color="#9A9A9B" />
            <stop offset="0.24" stop-color="#FBFCFD" />
            <stop offset="0.52" stop-color="#9A9A9B" />
            <stop offset="0.65" stop-color="#878787" />
            <stop offset="0.82" stop-color="#E4EEF7" />
            <stop offset="1" stop-color="#FBFCFD" />
        </linearGradient>
        <linearGradient id="paint3_linear_160_562" x1="-36.3283" y1="37.2832" x2="575.23"
            y2="-153.626" gradientUnits="userSpaceOnUse">
            <stop stop-color="#9A9A9B" />
            <stop offset="0.24" stop-color="#FBFCFD" />
            <stop offset="0.52" stop-color="#9A9A9B" />
            <stop offset="0.65" stop-color="#878787" />
            <stop offset="0.82" stop-color="#E4EEF7" />
            <stop offset="1" stop-color="#FBFCFD" />
        </linearGradient>
        <linearGradient id="paint4_linear_160_562" x1="-32.4652" y1="49.66" x2="579.097"
            y2="-141.249" gradientUnits="userSpaceOnUse">
            <stop stop-color="#9A9A9B" />
            <stop offset="0.24" stop-color="#FBFCFD" />
            <stop offset="0.52" stop-color="#9A9A9B" />
            <stop offset="0.65" stop-color="#878787" />
            <stop offset="0.82" stop-color="#E4EEF7" />
            <stop offset="1" stop-color="#FBFCFD" />
        </linearGradient>
        <linearGradient id="paint5_linear_160_562" x1="-26.8975" y1="67.4898" x2="584.66"
            y2="-123.419" gradientUnits="userSpaceOnUse">
            <stop stop-color="#9A9A9B" />
            <stop offset="0.24" stop-color="#FBFCFD" />
            <stop offset="0.52" stop-color="#9A9A9B" />
            <stop offset="0.65" stop-color="#878787" />
            <stop offset="0.82" stop-color="#E4EEF7" />
            <stop offset="1" stop-color="#FBFCFD" />
        </linearGradient>
        <linearGradient id="paint6_linear_160_562" x1="-23.4351" y1="78.5821" x2="588.121"
            y2="-112.331" gradientUnits="userSpaceOnUse">
            <stop stop-color="#9A9A9B" />
            <stop offset="0.24" stop-color="#FBFCFD" />
            <stop offset="0.52" stop-color="#9A9A9B" />
            <stop offset="0.65" stop-color="#878787" />
            <stop offset="0.82" stop-color="#E4EEF7" />
            <stop offset="1" stop-color="#FBFCFD" />
        </linearGradient>
    </defs>
</svg>